<svg width="17" height="18" viewBox="0 0 17 18" fill="none" xmlns="http://www.w3.org/2000/svg">
<path fill-rule="evenodd" clip-rule="evenodd" d="M15 6.5C15 2.91016 12.0898 0 8.5 0C4.91016 0 2 2.91016 2 6.5V11L0 14H17L15 11V6.5ZM13.5 6.5V11.4542L14.1972 12.5H2.80278L3.5 11.4542V6.5C3.5 3.73857 5.73859 1.5 8.5 1.5C11.2614 1.5 13.5 3.73857 13.5 6.5Z" fill="#667580"/>
<path fill-rule="evenodd" clip-rule="evenodd" d="M8.36491 0H0.135086C0.135086 0 0 0.0460052 0 0.25C0 2.59721 1.90279 4.5 4.25 4.5C6.59721 4.5 8.5 2.59721 8.5 0.25C8.5 0.0460052 8.36491 0 8.36491 0ZM6.9888 0.5C6.86249 1.90163 5.68451 3 4.25 3C2.81549 3 1.63753 1.90163 1.51122 0.5H6.9888Z" transform="translate(4 13)" fill="#667580"/>
</svg>
