<svg width="21" height="17" viewBox="0 0 21 17" fill="none" xmlns="http://www.w3.org/2000/svg">
<path fill-rule="evenodd" clip-rule="evenodd" d="M20.615 1.952C19.857 2.283 19.041 2.507 18.186 2.608C19.059 2.092 19.73 1.277 20.046 0.304C19.228 0.782 18.323 1.128 17.36 1.315C16.588 0.505 15.489 0 14.273 0C11.937 0 10.043 1.864 10.043 4.163C10.043 4.49 10.081 4.807 10.153 5.112C6.638 4.938 3.521 3.281 1.435 0.762C1.071 1.377 0.863 2.092 0.863 2.855C0.863 4.3 1.609 5.574 2.744 6.321C2.051 6.299 1.399 6.112 0.829 5.8C0.828 5.817 0.828 5.835 0.828 5.852C0.828 7.87 2.286 9.552 4.221 9.935C3.866 10.03 3.492 10.081 3.107 10.081C2.834 10.081 2.569 10.055 2.311 10.006C2.849 11.66 4.411 12.864 6.262 12.897C4.814 14.014 2.991 14.68 1.009 14.68C0.668 14.68 0.331 14.66 0 14.621C1.872 15.803 4.095 16.492 6.484 16.492C14.263 16.492 18.517 10.148 18.517 4.646C18.517 4.466 18.513 4.286 18.505 4.107C19.331 3.521 20.048 2.787 20.615 1.952Z" fill="#059FF5"/>
</svg>
