<svg width="15" height="14" viewBox="0 0 15 14" fill="none" xmlns="http://www.w3.org/2000/svg">
<path d="M0.5 3C0.5 1.61929 1.61929 0.5 3 0.5H12C13.3807 0.5 14.5 1.61929 14.5 3V11C14.5 12.3807 13.3807 13.5 12 13.5H3C1.61929 13.5 0.5 12.3807 0.5 11V3Z" stroke="#667580"/>
<path d="M0 0.83205L5.58397 4.5547C5.93738 4.7903 6.35261 4.91603 6.77735 4.91603C7.20209 4.91603 7.61732 4.7903 7.97073 4.5547L13.5547 0.83205L13 0L7.41603 3.72265C7.22689 3.84874 7.00466 3.91603 6.77735 3.91603C6.55004 3.91603 6.32781 3.84874 6.13868 3.72265L0.5547 0L0 0.83205Z" transform="translate(0.722656 2.58398)" fill="#667580"/>
</svg>
