<svg width="20" height="14" viewBox="0 0 20 14" fill="none" xmlns="http://www.w3.org/2000/svg">
<path fill-rule="evenodd" clip-rule="evenodd" d="M7.75256 4.43005L7 5.0885L4.37628 2.08997V10.2593C4.37628 11.0876 5.04785 11.7593 5.87628 11.7593H11.3763V12.7593H5.87628C4.49557 12.7593 3.37628 11.64 3.37628 10.2593V2.08997L0.752563 5.0885L0 4.43005L3.87628 0L7.75256 4.43005ZM13.5 2H8V1H13.5C14.8807 1 16 2.11926 16 3.5V11.6693L18.6237 8.67078L19.3763 9.32922L15.5 13.7593L11.6237 9.32922L12.3763 8.67078L15 11.6693V3.5C15 2.67163 14.3284 2 13.5 2Z" fill="#657786"/>
</svg>
