<svg width="16" height="17" viewBox="0 0 16 17" fill="none" xmlns="http://www.w3.org/2000/svg">
<path d="M2.82398 8.78302C2.15146 8.67336 1.50591 8.35991 0.987389 7.84267C-0.32913 6.5294 -0.32913 4.40043 0.987389 3.08767L3.27872 0.984569C4.59524 -0.32819 6.72894 -0.32819 8.04494 0.984569C9.36146 2.29784 9.36146 4.42629 8.04494 5.73905L6.73154 7.08802" transform="translate(5.53712 1.00012)" stroke="#657888" stroke-linecap="round"/>
<path d="M6.43507 0C7.17396 0.0786207 7.89159 0.400345 8.4573 0.965172C9.77381 2.27845 9.77381 4.40741 8.4573 5.72017L5.75374 8.41707C4.43722 9.73035 2.30352 9.73035 0.987 8.41707C-0.329 7.10431 -0.329 4.97586 0.987 3.66259L2.43885 2.21483" transform="translate(0.999897 6.41394)" stroke="#657888" stroke-linecap="round"/>
</svg>
