<svg width="20" height="19" viewBox="0 0 20 19" fill="none" xmlns="http://www.w3.org/2000/svg">
<path fill-rule="evenodd" clip-rule="evenodd" d="M17.985 6.85477L18.9698 7.51135L19.8019 6.26328L10.407 0L0 6.24419L0.771744 7.53043L1.79687 6.91536L3.36754 16.3394C3.58854 17.6654 4.73582 18.6373 6.08013 18.6373H13.6916C15.0359 18.6373 16.1832 17.6654 16.4042 16.3394L17.985 6.85477ZM16.6164 5.94235L10.3648 1.77463L3.17931 6.08589L4.84713 16.0928C4.94759 16.6955 5.46908 17.1373 6.08013 17.1373H13.6916C14.3027 17.1373 14.8242 16.6955 14.9246 16.0928L16.6164 5.94235ZM6.38587 9.38731C6.38587 11.3203 7.95288 12.8873 9.88587 12.8873C11.8189 12.8873 13.3859 11.3203 13.3859 9.38731C13.3859 7.45432 11.8189 5.88731 9.88587 5.88731C7.95288 5.88731 6.38587 7.45432 6.38587 9.38731ZM11.8859 9.38731C11.8859 10.4919 10.9904 11.3873 9.88587 11.3873C8.7813 11.3873 7.88587 10.4919 7.88587 9.38731C7.88587 8.28275 8.7813 7.38731 9.88587 7.38731C10.9904 7.38731 11.8859 8.28275 11.8859 9.38731Z" fill="#667580"/>
</svg>
