<svg width="17" height="14" viewBox="0 0 17 14" fill="none" xmlns="http://www.w3.org/2000/svg">
<path fill-rule="evenodd" clip-rule="evenodd" d="M15 0H2C0.895416 0 0 0.895432 0 2V12C0 13.1046 0.895416 14 2 14H15C16.1046 14 17 13.1046 17 12V2C17 0.895432 16.1046 0 15 0ZM1.5 2C1.5 1.72386 1.72385 1.5 2 1.5H15C15.2762 1.5 15.5 1.72386 15.5 2V12C15.5 12.2761 15.2762 12.5 15 12.5H2C1.72385 12.5 1.5 12.2761 1.5 12V2Z" fill="#667580"/>
<path d="M0 1.1713L6.25061 6.17179C7.25496 6.97527 8.68208 6.97527 9.68643 6.17179L15.937 1.1713L15 0L8.74939 5.00049C8.29287 5.36571 7.64418 5.36571 7.18765 5.00049L0.937043 0L0 1.1713Z" transform="translate(1 1)" fill="#667580"/>
</svg>
