<svg width="4" height="14" viewBox="0 0 4 14" fill="none" xmlns="http://www.w3.org/2000/svg">
<path d="M3.5 2C3.5 2.82843 2.82843 3.5 2 3.5C1.17157 3.5 0.5 2.82843 0.5 2C0.5 1.17157 1.17157 0.5 2 0.5C2.82843 0.5 3.5 1.17157 3.5 2Z" stroke="#6C7E8E"/>
<path d="M3.5 2C3.5 2.82843 2.82843 3.5 2 3.5C1.17157 3.5 0.5 2.82843 0.5 2C0.5 1.17157 1.17157 0.5 2 0.5C2.82843 0.5 3.5 1.17157 3.5 2Z" transform="translate(0 5)" stroke="#6C7E8E"/>
<path d="M3.5 2C3.5 2.82843 2.82843 3.5 2 3.5C1.17157 3.5 0.5 2.82843 0.5 2C0.5 1.17157 1.17157 0.5 2 0.5C2.82843 0.5 3.5 1.17157 3.5 2Z" transform="translate(0 10)" stroke="#6C7E8E"/>
</svg>
