<svg width="18" height="18" viewBox="0 0 18 18" fill="none" xmlns="http://www.w3.org/2000/svg">
<mask id="mask0" mask-type="alpha" maskUnits="userSpaceOnUse" x="0" y="0" width="18" height="18">
<path fill-rule="evenodd" clip-rule="evenodd" d="M18 8.99996V0H0V8.99996V17.9999H18V8.99996Z" fill="white"/>
</mask>
<g mask="url(#mask0)">
<path fill-rule="evenodd" clip-rule="evenodd" d="M18 9C18 7.74245 17.4207 6.63218 16.5281 5.88191C16.6287 4.72009 16.2532 3.52473 15.3638 2.63618C14.4753 1.74682 13.2799 1.37127 12.1181 1.47191C11.3678 0.579273 10.2575 0 9 0C7.74245 0 6.63218 0.579273 5.88191 1.47191C4.72009 1.37127 3.52473 1.74682 2.63618 2.63618C1.74682 3.52473 1.37127 4.72009 1.47191 5.88191C0.579273 6.63218 0 7.74245 0 9C0 10.2575 0.579273 11.3678 1.47191 12.1181C1.37127 13.2799 1.74682 14.4753 2.63618 15.3638C3.52473 16.2532 4.72009 16.6287 5.88191 16.5281C6.63218 17.4207 7.74245 18 9 18C10.2575 18 11.3678 17.4207 12.1181 16.5281C13.2799 16.6287 14.4753 16.2532 15.3638 15.3638C16.2532 14.4753 16.6287 13.2799 16.5281 12.1181C17.4207 11.3678 18 10.2575 18 9Z" fill="#86C8FC"/>
<path fill-rule="evenodd" clip-rule="evenodd" d="M1.75745 7.97155L0 6.33355L5.90236 0L7.66064 1.638L1.75745 7.97155Z" transform="translate(6.39319 4.9801)" fill="white"/>
<path fill-rule="evenodd" clip-rule="evenodd" d="M5.61109 3.77182L4.095 5.418L0 1.64618L1.51609 0L5.61109 3.77182Z" transform="translate(4.06645 7.51556)" fill="white"/>
</g>
</svg>
