<svg width="8" height="8" viewBox="0 0 8 8" fill="none" xmlns="http://www.w3.org/2000/svg">
<path fill-rule="evenodd" clip-rule="evenodd" d="M7.77165 0.229003C7.48448 -0.0590359 7.03818 -0.0777051 6.77502 0.18633L3.86602 3.10583L1.21486 0.445031C0.953474 0.182774 0.510724 0.201443 0.226226 0.486815C-0.0582726 0.773075 -0.0769428 1.21758 0.18444 1.47984L2.83561 4.14064L0.413816 6.57207C0.150656 6.83611 0.169326 7.28417 0.455602 7.57221C0.742767 7.86024 1.18907 7.87891 1.45223 7.61488L3.87403 5.18344L6.49585 7.81491C6.75724 8.07716 7.19999 8.05849 7.48448 7.77312C7.76987 7.48686 7.78854 7.04325 7.52716 6.7801L4.90533 4.14864L7.81432 1.22914C8.07749 0.965101 8.05882 0.517041 7.77165 0.229003Z" fill="#CCD6DD"/>
</svg>
