<svg width="17" height="15" viewBox="0 0 17 15" fill="none" xmlns="http://www.w3.org/2000/svg">
<path fill-rule="evenodd" clip-rule="evenodd" d="M7.29288 13.2444C7.29288 13.2444 2.6947 9.8645 1.5365 8.38818C-0.374329 5.95264 -0.122192 3.90466 0.292877 2.24438C0.516693 1.349 1.03912 0.686646 2.29288 0.244385C3.54663 -0.197998 4.91339 0.0596924 5.29288 0.244385C5.86462 0.522583 6.97675 1.85718 7.2373 2.1759C7.49786 1.85718 8.60999 0.522583 9.18173 0.244385C9.56122 0.0596924 10.928 -0.197998 12.1817 0.244385C13.4355 0.686646 13.9579 1.349 14.1817 2.24438C14.5979 3.90894 14.8451 5.96326 12.9232 8.40723C11.7663 9.87842 7.29285 13.2444 7.29288 13.2444Z" transform="translate(1.70715 0.755615)" stroke="#748592" stroke-width="1.5"/>
</svg>
