<svg width="15" height="15" viewBox="0 0 15 15" fill="none" xmlns="http://www.w3.org/2000/svg">
<path d="M0.5 2C0.5 1.17157 1.17157 0.5 2 0.5H13C13.8284 0.5 14.5 1.17157 14.5 2V13C14.5 13.8284 13.8284 14.5 13 14.5H2C1.17157 14.5 0.5 13.8284 0.5 13V2Z" stroke="#687A88"/>
<path d="M50.1909 49.9052L53.4838 46.6123C53.8743 46.2217 54.5075 46.2217 54.898 46.6123L60.1909 51.9052" transform="translate(-49.1909 -37.9052)" stroke="#687A88"/>
<path d="M1706.09 -1040.11L1709.27 -1043.3C1709.7 -1043.73 1710.41 -1043.68 1710.78 -1043.19L1713.09 -1040.11" transform="translate(-1699.09 1050.11)" stroke="#687A88"/>
<path fill-rule="evenodd" clip-rule="evenodd" d="M0.5 1C0.776142 1 1 0.776142 1 0.5C1 0.223858 0.776142 0 0.5 0C0.223858 0 0 0.223858 0 0.5C0 0.776142 0.223858 1 0.5 1Z" transform="translate(5 4)" stroke="#687A88"/>
</svg>
