<svg width="16" height="13" viewBox="0 0 16 13" fill="none" xmlns="http://www.w3.org/2000/svg">
<path fill-rule="evenodd" clip-rule="evenodd" d="M4.635 2.564C4.635 4.322 4.031 5.168 2.318 5.168C0.605 5.168 0 4.283 0 2.564C0 1.092 1.094 0 2.318 0C3.541 0 4.635 1.092 4.635 2.564Z" transform="translate(2.62408 0.500305)" stroke="#1DA1F2"/>
<path fill-rule="evenodd" clip-rule="evenodd" d="M1.04927 4.248C0.309274 4.248 -0.198726 3.494 0.0752739 2.802C0.722274 1.168 2.43327 0 4.44227 0C6.45027 0 8.16127 1.168 8.80827 2.802C9.08227 3.494 8.57427 4.248 7.83427 4.248H1.04927Z" transform="translate(0.499817 7.28308)" stroke="#1DA1F2"/>
<path fill-rule="evenodd" clip-rule="evenodd" d="M4.635 2.564C4.635 4.322 4.031 5.168 2.318 5.168C0.605 5.168 0 4.283 0 2.564C0 1.092 1.094 0 2.318 0C3.541 0 4.635 1.092 4.635 2.564Z" transform="translate(8.62408 0.500305)" stroke="#1DA1F2"/>
<path d="M0.393 4.248H6.393C7.133 4.248 7.641 3.494 7.367 2.802C6.72 1.168 5.009 0 3 0C1.853 0 0.811 0.39 0 1.021" transform="translate(7.94128 7.28308)" stroke="#1DA1F2"/>
</svg>
